<?xml version="1.0" encoding="UTF-8"?>
<!DOCTYPE svg PUBLIC "-//W3C//DTD SVG 1.1//EN" "http://www.w3.org/Graphics/SVG/1.1/DTD/svg11.dtd">
<svg version="1.1" xmlns="http://www.w3.org/2000/svg" xmlns:xlink="http://www.w3.org/1999/xlink" x="0" y="0" width="1024" height="1024" viewBox="0, 0, 1024, 1024">
  <g id="Layer_1">
    <path d="M-0,0 L1024,0 L1024,1024 L-0,1024 L-0,0 z" fill="#236F8E"/>
    <path d="M669.6,777.6 C643.5,733.5 543.5,568.1 521.9,531.8 C490.6,479.2 441.7,452.3 446.3,452.1 C560,444.6 596.6,368.4 596.6,309.6 C596.6,232.2 546.2,174.7 423.9,174.7 L277.9,166.4 L277.9,194.5 L396,202.9 C475.1,202.9 507.5,256.5 507.5,313.2 C507.5,361.7 477.8,431.9 404,431.9 C404,431.9 345.2,431.6 309.1,431.6 C309.1,431.6 309.1,445.6 309.1,453.7 C309.1,453.7 387.3,484.4 430.1,551.5 C467.3,609.8 587.7,812.6 618.3,857.6 L746.1,857.6 L746.1,831.5 L718.6,824.2 C697.1,819.7 687.6,805.5 669.6,777.6 z" fill="#FFFFFF" id="R_blue"/>
  </g>
</svg>
